<?xml version="1.0" encoding="UTF-8" standalone="no"?>
<svg
   xmlns:dc="http://purl.org/dc/elements/1.1/"
   xmlns:cc="http://creativecommons.org/ns#"
   xmlns:rdf="http://www.w3.org/1999/02/22-rdf-syntax-ns#"
   xmlns:svg="http://www.w3.org/2000/svg"
   xmlns="http://www.w3.org/2000/svg"
   viewBox="0 0 1333.3333 1000"
   height="1000"
   width="1333.3333"
   xml:space="preserve"
   id="svg2"
   version="1.1"><metadata
     id="metadata8"><rdf:RDF><cc:Work
         rdf:about=""><dc:format>image/svg+xml</dc:format><dc:type
           rdf:resource="http://purl.org/dc/dcmitype/StillImage" /></cc:Work></rdf:RDF></metadata><defs
     id="defs6" /><g
     transform="matrix(1.3333333,0,0,-1.3333333,0,1000)"
     id="g10"><g
       transform="scale(0.1)"
       id="g12"><path
         id="path14"
         style="fill:#ffffff00;fill-opacity:1;fill-rule:nonzero;stroke:none"
         d="M 10000,0 H 0 V 7500 H 10000 V 0" /><path
         id="path16"
         style="fill:#79a0bb;fill-opacity:1;fill-rule:nonzero;stroke:none"
         d="m 3744.43,3586.77 c 0,0 -70.13,39.13 -258.04,39.13 -187.93,0 -258.06,-39.13 -258.06,-39.13 v 8.4 h -12.9 v -384.08 -0.04 -1350.54 -0.02 h 12.9 516.1 12.9 v 1734.68 h -12.9 v -8.4" /><path
         id="path18"
         style="fill:#79a0bb;fill-opacity:1;fill-rule:nonzero;stroke:none"
         d="m 1715.59,3257.52 0.67,98.41 -178.17,-43.43 -5.16,-1.29 -183.34,-44.68 -0.68,-100.66 c 0,0 -159.65,-60.63 -160.29,-154.95 l -7.85,-1147.99 649.08,-4.42 9.87,1442.99 c 0.14,20.19 -124.13,-43.98 -124.13,-43.98" /><path
         id="path20"
         style="fill:#79a0bb;fill-opacity:1;fill-rule:nonzero;stroke:none"
         d="M 8385.86,2693.22 V 3969 l -609.36,70.97 V 2915.55 l -193.52,-659.87 -626.1,116.94 -238.35,-163.49 v 1405.32 c 0,0 1.51,19.87 -9.28,40.57 v 0.04 221.56 c 0,0 130.54,34.09 130.54,113.59 0,79.46 -90.07,93.29 -45.43,123.25 44.6,30.07 105.43,-22.65 192.27,-22.65 86.8,0 152.49,98.94 152.49,207.27 0,0 -3.93,21.17 -37.69,25.8 0,0 -49.92,-30.86 -260.83,-30.86 h -296.9 c 0,0 -553.31,25.97 -553.31,-163.86 0,0 6.57,-56 77.08,-77.26 l 33.37,-81.88 c -3.7,-1.5 -7.68,-2.76 -11.89,-3.92 0,0 -119.24,-42.59 -119.24,-203.22 0,-160.63 62.48,-136.01 62.48,-208.54 V 1860.49 h 686.34 v 64.37 h 2039.23 56.05 l -427.95,768.36" /><path
         id="path22"
         style="fill:#79a0bb;fill-opacity:1;fill-rule:nonzero;stroke:none"
         d="m 3038.7,3393.56 h -50.19 v 26.92 h 50.19 z m 0,-62.03 h -50.19 v 26.92 h 50.19 z m 0,-62.03 h -50.19 v 26.92 h 50.19 z m 0,-62.08 h -50.19 v 26.92 h 50.19 z m 0,-61.98 h -50.19 v 26.86 h 50.19 z m 0,-62.08 h -50.19 v 26.91 h 50.19 z m 0,-62.07 h -50.19 v 26.91 h 50.19 z m 0,-61.99 h -50.19 v 26.87 h 50.19 z m 0,-62.07 h -50.19 v 26.91 h 50.19 z m 0,-62.03 h -50.19 v 26.95 h 50.19 z m 0,-62.04 h -50.19 v 26.92 h 50.19 z m 0,-717.58 v -26.92 h -50.19 v 26.92 z m -456.97,1337.98 h -50.2 v 26.92 h 50.2 z m 0,-62.03 h -50.2 v 26.92 h 50.2 z m 0,-62.03 h -50.2 v 26.92 h 50.2 z m 0,-62.08 h -50.2 v 26.92 h 50.2 z m 0,-61.98 h -50.2 v 26.86 h 50.2 z m 0,-62.08 h -50.2 v 26.91 h 50.2 z m 0,-62.07 h -50.2 v 26.91 h 50.2 z m 0,-61.99 h -50.2 v 26.87 h 50.2 z m 0,-62.07 h -50.2 v 26.91 h 50.2 z m 0,-62.03 h -50.2 v 26.95 h 50.2 z m 0,-62.04 h -50.2 v 26.92 h 50.2 z m 0,-62.07 h -50.2 v -24.73 h -13.91 c 0.15,8.28 0.29,16.6 0.42,24.95 h 13.49 v 26.7 h 50.2 z m 0,-62.03 h -50.2 v -24.28 h -15.12 c 0.18,8.27 0.35,16.57 0.52,24.92 h 14.6 v 26.28 h 50.2 z m 0,-62.08 h -50.2 v -23.85 h -16.59 c 0.22,8.3 0.43,16.63 0.63,25.01 h 15.96 v 25.76 h 50.2 z m 0,-61.98 h -50.2 v -23.43 h -18.32 c 0.25,8.25 0.49,16.56 0.73,24.92 h 17.59 v 25.42 h 50.2 z m 0,-62.03 h -50.2 v -23 h -20.31 c 0.28,8.23 0.56,16.54 0.83,24.9 h 19.48 v 24.96 h 50.2 z m 0,-62.08 h -50.2 v -22.53 h -22.55 c 0.32,8.24 0.62,16.56 0.93,24.95 h 21.62 v 24.45 h 50.2 z m 0,-62.03 h -50.2 v -22.1 h -25.04 c 0.35,8.24 0.69,16.58 1.04,24.99 h 24 v 24.02 h 50.2 z m 0,-62.07 h -50.2 v -21.65 h -27.78 c 0.38,8.22 0.76,16.55 1.14,24.97 h 26.64 v 23.59 h 50.2 z m 0,-62 h -50.2 v -21.21 h -30.78 c 0.42,8.21 0.83,16.52 1.25,24.96 h 29.53 v 23.13 h 50.2 z m 0,-62.07 h -50.2 v -20.7 h -34.03 c 0.45,8.17 0.9,16.46 1.35,24.92 h 32.68 v 22.7 h 50.2 z m 0,-62.03 h -50.2 v -20.32 h -37.56 c 0.49,8.13 0.98,16.44 1.46,24.96 h 36.1 v 22.28 h 50.2 z m 0,-62.03 h -50.2 v 26.92 h 50.2 z m -70.42,1335.27 c -0.33,8.3 -0.68,16.61 -1.03,24.92 h 21.25 v -24.92 z m 2.26,-61.61 c -0.28,8.32 -0.57,16.64 -0.87,24.97 h 18.83 v -24.97 z m 1.88,-61.6 c -0.23,8.29 -0.46,16.59 -0.71,24.9 h 16.79 v -24.9 z m 1.53,-61.56 c -0.18,8.29 -0.37,16.59 -0.57,24.9 h 15.12 v -24.9 z m 1.16,-61.6 c -0.13,8.29 -0.27,16.59 -0.43,24.9 h 13.82 v -24.9 z m 0.84,-61.62 c -0.08,8.31 -0.19,16.62 -0.29,24.96 h 12.84 v -24.96 z m 0.52,-61.6 c -0.05,8.29 -0.11,16.6 -0.17,24.92 h 12.2 v -24.92 z m 0.21,-61.62 c -0.01,8.31 -0.03,16.64 -0.05,24.98 h 11.87 v -24.98 z m -0.09,-61.55 c 0.03,8.28 0.05,16.58 0.07,24.91 h 11.84 v -24.91 z m 11.91,-98.31 v -24.9 h -12.97 c 0.11,8.27 0.21,16.57 0.31,24.9 z m -12.3,36.7 c 0.07,8.29 0.14,16.61 0.19,24.95 h 12.11 v -24.95 z m 12.3,640.89 v -24.92 h -22.89 c -0.39,8.31 -0.78,16.61 -1.19,24.92 z m 507.17,67.26 h -50.19 v 26.92 h 50.19 v 154.89 h -50.19 -30.35 v 69.93 h -23.37 v 63.47 c 0,0 -12.43,16.81 -69.02,25.78 l -0.55,22.1 c 0,0.51 -0.42,0.94 -0.93,0.94 -0.48,-0.09 -0.86,-0.47 -0.86,-0.94 l -0.52,-21.65 c -2.11,0.3 -4.28,0.6 -6.52,0.85 l -1.32,86.57 c 0,0.43 -0.36,0.73 -0.7,0.73 -0.38,-0.04 -0.69,-0.3 -0.69,-0.73 l -1.33,-86.05 c -16.51,2.03 -36.26,3.36 -59.77,3.57 l -0.83,33 c 0,0.38 -0.31,0.62 -0.62,0.58 -0.3,0 -0.56,-0.24 -0.56,-0.58 l -0.48,-20.62 h -9.91 l -0.53,20.62 c 0,0.34 -0.25,0.58 -0.55,0.58 -0.3,0.04 -0.6,-0.2 -0.6,-0.58 l -0.83,-33 c -23.5,-0.21 -43.23,-1.54 -59.76,-3.57 l -1.35,86.05 c 0,0.43 -0.31,0.69 -0.68,0.73 -0.37,0 -0.71,-0.3 -0.71,-0.73 l -1.34,-86.57 c -2.21,-0.25 -4.4,-0.55 -6.47,-0.85 l -0.52,21.65 c 0,0.47 -0.38,0.85 -0.9,0.94 -0.48,0 -0.93,-0.43 -0.93,-0.94 l -0.52,-22.1 c -56.58,-8.97 -69.04,-25.78 -69.04,-25.78 v -63.47 h -23.38 v -69.93 h -30.34 -50.2 v -154.89 h 50.2 v -26.92 h -50.2 v -20.84 h -26.49 c -18.33,334.95 -56.22,666.24 -126.76,933.26 -1.5,5.03 -6.76,8.27 -12,7.05 -5.3,-1.5 -8.28,-6.75 -7.01,-12.04 4.74,-17.51 8.97,-35.28 13.5,-53.3 l -200.88,-39.74 -160.37,39.25 c 4.53,18.25 9.01,36.28 13.5,53.79 1.54,5.29 -1.74,10.54 -6.74,12.04 -5.25,1.22 -10.77,-2.02 -12,-7.05 C 1768.63,3531.56 1901.2,1905.3 1904.96,1860.49 h 574.62 c 0.36,4.25 1.87,22.69 4.11,53.34 h 47.84 50.2 406.78 50.19 50.06 v 156.54 h -50.06 v 20.32 h -50.19 v 26.92 h 50.19 v -22.28 h 50.06 v 36.69 h -50.06 v 20.7 h -50.19 v 26.92 h 50.19 v -22.7 h 50.06 v 36.64 h -50.06 v 21.21 h -50.19 v 26.88 h 50.19 v -23.13 h 50.06 v 36.6 h -50.06 v 21.65 h -50.19 v 26.91 h 50.19 v -23.59 h 50.06 v 36.65 h -50.06 v 22.1 h -50.19 v 26.91 h 50.19 v -24.02 h 50.06 v 36.61 h -50.06 v 22.53 h -50.19 v 26.87 h 50.19 v -24.45 h 50.06 v 36.66 h -50.06 v 23 h -50.19 v 26.86 h 50.19 v -24.96 h 50.06 v 36.7 H 3038.7 V 2525 h -50.19 v 26.91 h 50.19 v -25.42 h 50.06 v 36.64 h -50.06 v 23.85 h -50.19 v 26.92 h 50.19 v -25.76 h 50.06 v 36.64 h -50.06 v 24.28 h -50.19 v 26.92 h 50.19 v -26.28 h 50.06 v 36.66 h -50.06 v 24.73 h -50.19 v 26.92 h 50.19 v -26.7 h 50.06 v 36.65 h -50.06 v 24.9 h 50.06 v 36.7 h -50.06 v 24.95 h 50.06 v 36.66 h -50.06 v 24.91 h 50.06 v 36.64 h -50.06 v 24.98 h 50.06 v 36.64 h -50.06 v 24.92 h 50.06 v 36.68 h -50.06 v 24.96 h 50.06 v 36.66 h -50.06 v 24.9 h 50.06 v 36.7 h -50.06 v 24.9 h 50.06 v 36.66 h -50.06 v 24.9 h 50.06 v 36.7 h -50.06 v 24.97 h 50.06 v 36.64 h -50.06 v 24.92 h 50.06 v 36.68 h -50.06 v 24.92 h 50.06 v 46.42 h -50.06 v 20.84" /><path
         id="path24"
         style="fill:#79a0bb;fill-opacity:1;fill-rule:nonzero;stroke:none"
         d="m 5558.91,2541.23 h -9.24 l -1.46,75.64 h 12.13 z m -30.11,0.24 h -16.16 v 73.84 h 17.99 z m -47.23,65.24 h -35.87 v 25.28 h 35.87 z m 0,-72.12 h -24.51 v 57.13 h 24.51 z m -31.54,0 h -24.51 v 57.13 h 24.51 z m -31.57,0 h -24.51 v 57.13 h 24.51 z m -31.58,0 h -24.51 v 57.13 h 24.51 z m -23.46,97.4 h 35.86 v -25.28 h -35.86 z m 41.16,0 h 35.85 v -25.28 h -35.85 z m -78.97,-25.28 h -35.87 v 25.28 h 35.87 z m 0,-72.12 h -24.51 v 57.13 h 24.51 z m -31.56,0 h -24.53 v 57.13 h 24.53 z m -31.58,0 h -24.5 v 57.13 h 24.5 z m -31.55,0 h -24.52 v 57.13 h 24.52 z m -67.29,72.12 h -32.47 v 24.76 h 32.47 z m 0,-72.12 h -32.47 v 57.13 h 32.47 z m -50.08,72.12 h -76.67 v 23.51 h 76.67 z m 0,-72.12 h -32.45 v 57.13 h 32.45 z m -44.21,0 h -32.46 v 57.13 h 32.46 z m -50.11,72.12 h -32.44 v 24.76 h 32.44 z m 0,-72.12 h -32.44 v 57.13 h 32.44 z m -75.25,0 h -24.51 v 57.13 h 24.51 z m -31.54,0 h -24.51 v 57.13 h 24.51 z m -31.56,0 h -24.54 v 57.13 h 24.54 z m -31.57,0 h -24.51 v 57.13 h 24.51 z m -24.51,97.4 h 35.87 v -25.28 h -35.87 z m 41.14,0 h 35.86 v -25.28 h -35.86 z m 41.14,0 h 35.87 v -25.28 h -35.87 z m 300.36,0 h 35.87 v -25.28 h -35.87 z m 41.16,0 h 35.85 v -25.28 h -35.85 z m -460.59,-97.4 h -24.51 v 57.13 h 24.51 z m -31.54,0 h -24.55 v 57.13 h 24.55 z m -31.58,0 h -24.52 v 57.13 h 24.52 z m -31.55,0 h -24.51 v 57.13 h 24.51 z m -24.51,97.4 h 35.87 v -25.28 h -35.87 z m 41.15,0 h 35.85 v -25.28 h -35.85 z m 41.12,0 h 35.89 v -25.28 h -35.89 z m -113.32,-90.52 h -16.19 l -1.81,73.84 h 18 z m -29.05,255.17 c 11.82,-9.94 28.27,-15.72 28.27,-15.72 v -17.99 c 0,0 -14.41,-4.22 -28.27,-8.48 z m -82.75,642.27 c -6.13,-7.03 -50.33,-56.2 -86.1,-56.2 -38.73,0 -42.9,12.91 -42.9,12.91 v 377.04 c 0,0 30.9,54.37 76.03,54.37 38.01,0 50.08,-9.14 52.97,-12.03 z m 0,-484.82 c -6.13,-7.02 -50.33,-56.2 -86.1,-56.2 -38.73,0 -42.9,12.88 -42.9,12.88 v 377.07 c 0,0 30.9,54.33 76.03,54.33 38.01,0 50.08,-9.08 52.97,-11.98 z m 0,-253.88 c -2.72,-0.87 -4.91,-2.48 -9.13,-3.64 -5.91,-1.66 -7.23,-4.7 -10.95,-4.7 -3.69,0 -4.83,0.63 -9.21,-1.86 -4.44,-2.46 -3.09,-6.97 -3.09,-17.16 0,-10.14 -11.53,-12.88 -0.76,-12.88 10.76,0 4.27,1.93 12.88,5.69 6.94,2.99 16.69,-2.22 20.26,-4.39 v -191.99 c -1.67,-1.92 -6.23,-7 -12.62,-13.33 h -46.95 v -21.92 h -16.42 l -0.72,-19.81 c -3.17,-0.67 -6.32,-1.14 -9.39,-1.14 -38.73,0 -42.9,12.93 -42.9,12.93 v 377.02 c 0,0 30.9,54.38 76.03,54.38 38.01,0 50.08,-9.14 52.97,-12.03 z m -129,1349.65 c 84.59,-53.91 113.82,-101.4 123.77,-128.87 0,0 0,0 0,-0.07 0.29,-0.73 0.5,-1.46 0.72,-2.14 -13.48,-14.54 -50.66,-51.27 -81.59,-51.27 -38.73,0 -42.9,12.92 -42.9,12.92 z m -131.56,182.74 h -85.49 v -26.06 h -37.99 c 10.99,29.46 41.14,78.26 123.48,134.38 z m 0,-352.17 c 0,0 -4.21,-12.92 -42.82,-12.92 -38.73,0 -86.88,57.09 -86.88,57.09 v 252.39 c 0,0 -0.37,5.18 1.77,14.45 4.62,-7.15 11.11,-11.05 11.11,-11.05 63.62,-40.23 98.08,-77.08 116.82,-105.69 z m 0,-484.81 c 0,0 -4.21,-12.91 -42.82,-12.91 -38.73,0 -86.88,57.08 -86.88,57.08 v 374.33 c 0,0 8.58,12.91 53.79,12.91 45.07,0 75.91,-54.37 75.91,-54.37 z m 0,-484.85 c 0,0 -4.21,-12.88 -42.82,-12.88 -38.73,0 -86.88,57.06 -86.88,57.06 v 374.35 c 0,0 8.58,12.87 53.79,12.87 45.07,0 75.91,-54.33 75.91,-54.33 z m 0,-484.76 c 0,0 -4.21,-12.93 -42.82,-12.93 -38.73,0 -86.88,57.1 -86.88,57.1 v 374.35 c 0,0 8.58,12.88 53.79,12.88 45.07,0 75.91,-54.38 75.91,-54.38 z m 1418.56,8.02 v 21.92 h -89.58 v 30.14 h -1.97 v 21.89 h -12.11 l -3.01,109.16 c 0,0 4.18,1.55 5.6,7.55 1.45,5.97 0,15.27 0,15.27 0,0 28.39,8.77 40.05,20.39 0,0 13.1,9.02 21.72,5.31 8.62,-3.76 2.15,-5.69 12.89,-5.69 10.79,0 -0.76,2.74 -0.76,12.88 0,10.19 1.35,14.7 -3.09,17.16 -4.4,2.49 -5.54,1.86 -9.23,1.86 -3.73,0 -5.02,3.04 -10.95,4.7 -5.98,1.65 -7.83,4.28 -13,4.28 -5.24,0 -6.09,4.32 -11.17,5.2 -5.1,0.89 -3.73,4.9 -2.35,9.22 1.37,4.29 -2.3,9.85 -1.67,15.46 0.64,5.59 -1.71,9.8 -5.86,9.8 -4.17,0 -8.82,-3.79 -16.42,0 -7.65,3.79 -9.99,2.75 -17.05,5.92 -7.04,3.12 -52.62,16.48 -52.62,16.48 v 17.99 c 0,0 27.64,9.68 37.03,25.57 0,0 4.86,-0.59 16.19,5.3 11.33,5.84 11.43,1.28 15.05,-2.36 3.62,-3.59 8.8,3.13 5.28,6.63 -3.51,3.56 0.2,15.09 -1.94,17.23 -2.16,2.18 -9.88,2.45 -13.68,6.24 -3.85,3.85 -9.03,2.97 -14.31,5.48 -5.25,2.58 -7.24,8.44 -5.88,11.98 1.4,3.52 0.44,9.77 -4.07,10.73 -4.52,1 -16.03,-0.72 -20.36,2.15 -4.29,2.89 -12.17,0.48 -15,3.27 -2.82,2.83 0.66,6.39 0,9.14 -0.64,2.74 -6.06,5 -8.48,2.6 -2.4,-2.41 -0.66,-5.84 -4.8,-4.29 -4.21,1.58 -82.59,7.58 -123.79,86.87 0,0 -4.02,6.11 -1.72,18.83 2.4,12.69 -0.56,8.41 -1.93,12.51 -1.38,4.09 -6.26,8.63 -6.26,13.11 0,4.49 0.19,8.99 -6.26,8.99 -6.46,0 -3.91,-1.74 -3.91,-6.64 0,-4.92 -1.14,-9.98 -5.65,-3.7 -4.52,6.25 -5.12,4.48 -5.12,8.96 0,4.5 -4.45,4.7 -9.38,4.7 -4.88,0 -9.6,-4.48 -7.85,-12.09 1.79,-7.67 8.43,-9.98 6.51,-18.99 -2,-9 -4.22,-9.4 -12.27,-9.4 h -491.19 c -8.07,0 -10.31,0.4 -12.27,9.4 -1.93,9.01 4.69,11.32 6.49,18.99 1.75,7.61 -2.94,12.09 -7.83,12.09 -4.92,0 -9.38,-0.2 -9.38,-4.7 0,-4.48 -0.61,-2.71 -5.11,-8.96 -4.52,-6.28 -5.66,-1.22 -5.66,3.7 0,4.9 2.54,6.64 -3.91,6.64 -6.45,0 -6.27,-4.5 -6.27,-8.99 0,-4.48 -4.88,-9.02 -6.25,-13.11 -1.38,-4.1 -4.33,0.18 -1.96,-12.51 2.33,-12.72 -1.7,-18.83 -1.7,-18.83 -41.21,-79.29 -119.61,-85.29 -123.77,-86.87 -4.17,-1.55 -2.4,1.88 -4.85,4.29 -2.38,2.4 -7.8,0.14 -8.43,-2.6 -0.68,-2.75 2.78,-6.31 0,-9.14 -2.83,-2.79 -10.71,-0.38 -15.01,-3.27 -3.06,-2.04 -9.73,-1.76 -14.97,-1.79 v 1027.79 c 0,0 -4.57,69.59 131.04,155.35 0,0 14.85,8.97 14.85,24.66 h -44.38 v 24.58 h -98.55 v 43.79 h -88.68 v -43.79 h -98.57 v -24.58 h -26.71 c 18.98,28.35 53.33,64.79 116.08,104.51 0,0 15.75,9.51 15.75,26.15 h -47.06 v 26.06 h -85.52 v 140.22 c 0,0 -7.27,85.89 208.1,191.71 0,0 23.62,11.05 23.62,30.47 h -70.54 v 30.36 h -453.9 V 4595 h -70.52 c 0,-19.42 23.63,-30.47 23.63,-30.47 174.25,-85.67 202.67,-158.22 207.21,-182.75 h -13.41 v 27.98 h -113.41 v 49.32 h -98.39 v -49.32 h -113.41 v -27.98 h -50.58 c 0,-17.84 16.93,-28.1 16.93,-28.1 154.36,-97.62 149.12,-176.69 149.12,-176.69 V 1888.21 c -36.96,0 -37.62,-27.72 -37.62,-27.72 h 169.5 c 0,0 -0.62,27.72 -37.59,27.72 v 471.46 c 0,0 8.58,12.89 53.79,12.89 45.07,0 75.91,-54.35 75.91,-54.35 v -427.66 c -51.58,0 -52.45,-30.06 -52.45,-30.06 h 39.41 157.66 39.41 c 0,0 -0.9,30.06 -52.47,30.06 v 427.66 c 0,0 19.7,34.53 50.58,48.52 l -5.67,-157.28 h 84.09 v -324.6 c -32.48,0 -33.08,-24.36 -33.08,-24.36 h 148.94 c 0,0 -0.62,24.36 -33.11,24.36 v 324.6 h 216.85 v 119.71 h 103.3 v -119.71 h 89.96 v 137.71 h 112.69 v -137.71 h 90.01 v 119.71 h 103.27 v -119.71 h 383.71 l -8.1,224.58 h -16.44" /><path
         id="path26"
         style="fill:#162a3b;fill-opacity:1;fill-rule:nonzero;stroke:none"
         d="m 4818.38,3571.56 h 499.2 L 5523.99,2280.34 5171.16,2394.1 H 4647.73 Z M 9050,1960.49 h -454.75 v 110.09 c 0,32.96 14.82,39.17 14.82,39.17 v 21.08 c 0,0 35.5,54.01 74.75,56.66 -0.1,-2.12 -0.58,-7.74 -2.42,-9.92 -2.19,-2.76 -3.9,-14.73 3.95,-14.73 7.84,0 6.25,11.97 3.89,14.73 -1.83,2.22 -2.28,8.06 -2.38,10.07 1.02,-0.15 10.67,-0.67 10.67,9.01 0,10.16 2.1,17.38 -10.48,17.38 -12.64,0 -62.09,25.76 -74.9,38.79 h -11.59 v 20.3 c 0,0 34.46,51.88 72.68,54.49 -0.18,-2.08 -0.62,-7.49 -2.38,-9.62 -2.18,-2.67 -3.77,-14.07 3.79,-14.07 7.65,0 6.07,11.4 3.83,14.07 -1.76,2.22 -2.23,7.79 -2.32,9.72 0.95,-0.1 10.36,-0.62 10.36,8.66 0,9.8 2.09,16.72 -10.21,16.72 -12.26,0 -60.31,24.75 -72.78,37.25 h -10.51 v 18.05 c 0,0 33.6,46.04 70.8,48.39 -0.07,-1.91 -0.52,-6.66 -2.27,-8.58 -2.13,-2.3 -3.69,-12.51 3.74,-12.51 7.43,0 5.84,10.21 3.67,12.51 -1.69,1.96 -2.13,6.94 -2.22,8.67 0.91,-0.09 10.08,-0.57 10.08,7.67 0,8.67 2.04,14.9 -9.86,14.9 -11.97,0 -58.83,21.91 -71.02,32.99 h -10.12 v 15.93 c 0,0 32.74,40.65 68.98,42.69 -0.11,-1.65 -0.48,-5.84 -2.18,-7.52 -2.04,-2.08 -3.65,-11.07 3.63,-11.07 7.18,0 5.72,8.99 3.58,11.07 -1.67,1.73 -2.11,6.1 -2.23,7.61 0.97,-0.09 9.84,-0.52 9.84,6.76 0,7.68 2,13.13 -9.62,13.13 -11.74,0 -57.34,19.36 -69.2,29.14 h -7 v 15.89 c 0,0 32.18,40.7 67.96,42.7 -0.08,-1.62 -0.5,-5.79 -2.22,-7.5 -2,-2.08 -3.5,-11.06 3.61,-11.06 7.06,0 5.67,8.98 3.53,11.06 -1.62,1.71 -2.08,6.1 -2.17,7.54 0.9,-0.04 9.69,-0.44 9.69,6.84 0,7.67 1.98,13.07 -9.48,13.07 -11.55,0 -56.48,19.39 -68.19,29.2 h -9.18 v 15.89 c 0,0 31.5,40.69 66.44,42.69 -0.1,-1.65 -0.54,-5.87 -2.14,-7.48 -2,-2.1 -3.48,-11.12 3.47,-11.12 6.92,0 5.51,9.02 3.48,11.12 -1.64,1.65 -2.03,6.02 -2.13,7.52 0.84,-0.04 9.44,-0.43 9.44,6.81 0,7.62 1.95,13.12 -9.29,13.12 -11.2,0 -55.15,19.37 -66.62,29.18 H 8572 v 15.86 c 0,0 30.99,40.64 65.38,42.7 -0.09,-1.62 -0.53,-5.88 -2.09,-7.54 -2.01,-2.05 -3.44,-11.03 3.43,-11.03 6.85,0 5.38,8.98 3.45,11.03 -1.6,1.75 -2.05,6.1 -2.18,7.63 0.92,-0.09 9.37,-0.48 9.37,6.78 0,7.63 1.9,13.03 -9.15,13.03 -11.08,0 -54.32,19.44 -65.53,29.24 h -8.32 v 15.9 c 0,0 30.32,40.6 64,42.65 -0.09,-1.61 -0.49,-5.84 -2.09,-7.48 -1.9,-2.11 -3.34,-11.13 3.38,-11.13 6.75,0 5.34,9.02 3.41,11.13 -1.61,1.69 -2,6.06 -2.1,7.56 0.85,-0.08 9.11,-0.48 9.11,6.85 0,7.62 1.87,13.02 -8.96,13.02 -10.81,0 -53.15,19.43 -64.15,29.15 h -8.52 v 15.95 c 0,0 29.65,40.64 62.56,42.69 -0.08,-1.61 -0.48,-5.84 -2.05,-7.54 -1.87,-2.04 -3.27,-11.05 3.31,-11.05 6.59,0 5.19,9.01 3.32,11.05 -1.62,1.75 -1.92,6.11 -2.05,7.62 0.84,-0.08 8.98,-0.46 8.98,6.8 0,7.63 1.76,13.07 -8.81,13.07 -10.56,0 -51.97,19.42 -62.73,29.14 h -6.45 v 15.92 c 0,0 29.18,40.69 61.6,42.69 -0.09,-1.62 -0.44,-5.79 -1.97,-7.51 -1.84,-2.08 -3.26,-11.05 3.23,-11.05 6.47,0 5.14,8.97 3.2,11.05 -1.46,1.72 -1.85,6.12 -1.95,7.59 0.8,-0.08 8.76,-0.48 8.76,6.85 0,7.62 1.79,13.05 -8.57,13.05 -10.45,0 -51.2,19.4 -61.82,29.16 h -7.51 v 15.89 c 0,0 28.66,40.71 60.39,42.71 -0.13,-1.65 -0.51,-5.89 -1.99,-7.49 -1.8,-2.1 -3.14,-11.08 3.23,-11.08 6.26,0 5,8.98 3.09,11.08 -1.45,1.64 -1.84,6.05 -1.9,7.53 0.83,-0.04 8.61,-0.44 8.61,6.8 0,7.63 1.69,13.12 -8.47,13.12 -10.18,0 -50.11,19.37 -60.55,29.18 h -7.78 v 13.9 c 0,0 28.05,35.55 59.04,37.29 -0.09,-1.44 -0.45,-5.1 -1.85,-6.58 -1.79,-1.82 -3.1,-9.61 3.09,-9.61 6.14,0 4.87,7.79 3.09,9.61 -1.48,1.48 -1.82,5.37 -1.95,6.67 0.87,-0.09 8.45,-0.39 8.45,5.97 0,6.63 1.69,11.41 -8.28,11.41 -9.94,0 -49.02,16.95 -59.21,25.49 h -8.1 v 12.16 c 0,0 27.36,30.97 57.65,32.54 -0.06,-1.25 -0.45,-4.49 -1.82,-5.76 -1.73,-1.56 -3.05,-8.4 2.99,-8.4 6.03,0 4.82,6.84 3.04,8.4 -1.37,1.27 -1.75,4.63 -1.83,5.8 0.74,-0.04 8.17,-0.36 8.17,5.18 0,5.8 1.68,9.98 -8.03,9.98 -9.77,0 -47.93,14.77 -57.8,22.22 0,0 -27.56,24.14 -27.56,52.51 0,0 8.92,17.95 -20.33,11.59 -29.18,-6.33 -116.17,40.03 -138.98,77.49 0,0 -6.37,10.51 -2.26,23.49 4.17,13.02 27,17.77 27,33.98 0,16.16 -32.38,23.17 -32.38,36.15 0,12.99 1.91,42.87 -10.36,64.05 0,0 4.61,8.45 -2.13,20.73 -6.76,12.3 -11.42,13.56 -11.42,24.14 0,10.55 -5.93,3.49 -5.93,18.74 0,15.2 0,29.18 0,29.18 0,0 13.03,4.11 13.03,14.3 0,10.14 -16.47,12.36 -16.47,26.97 0,14.64 -0.48,35.55 -10.06,35.55 -9.67,0 -10.07,-20.91 -10.07,-35.55 0,-14.61 -16.55,-16.83 -16.55,-26.97 0,-10.19 13.02,-14.3 13.02,-14.3 0,0 0,-13.98 0,-29.18 0,-15.25 -5.92,-8.19 -5.92,-18.74 0,-10.58 -4.64,-11.84 -11.44,-24.14 -6.77,-12.28 -2.08,-20.73 -2.08,-20.73 -12.29,-21.18 -10.4,-51.06 -10.4,-64.05 0,-12.98 -32.36,-19.99 -32.36,-36.15 0,-16.21 22.86,-20.96 26.97,-33.98 4.12,-12.98 -2.24,-23.49 -2.24,-23.49 -22.86,-37.46 -109.8,-83.82 -139,-77.49 -29.22,6.36 -20.32,-11.59 -20.32,-11.59 0,-28.37 -27.54,-52.51 -27.54,-52.51 -9.9,-7.45 -48.04,-22.22 -57.81,-22.22 -9.67,0 -8.05,-4.18 -8.05,-9.98 0,-5.54 7.45,-5.22 8.19,-5.18 -0.09,-1.17 -0.44,-4.53 -1.81,-5.8 -1.82,-1.56 -3.06,-8.4 3.03,-8.4 6.01,0 4.74,6.84 3,8.4 -1.4,1.27 -1.74,4.51 -1.86,5.76 30.32,-1.57 57.64,-32.54 57.64,-32.54 v -12.16 h -8.07 c -10.15,-8.54 -49.23,-25.49 -59.25,-25.49 -9.93,0 -8.24,-4.78 -8.24,-11.41 0,-6.36 7.68,-6.06 8.39,-5.97 -0.02,-1.3 -0.4,-5.19 -1.86,-6.67 -1.8,-1.82 -3.08,-9.61 3.11,-9.61 6.18,0 4.9,7.79 3.08,9.61 -1.42,1.48 -1.8,5.14 -1.91,6.58 31.06,-1.74 59.07,-37.29 59.07,-37.29 v -13.9 h -7.83 c -10.38,-9.81 -50.31,-29.18 -60.57,-29.18 -10.1,0 -8.39,-5.49 -8.39,-13.12 0,-7.24 7.83,-6.84 8.62,-6.8 -0.09,-1.48 -0.48,-5.89 -1.98,-7.53 -1.81,-2.1 -3.12,-11.08 3.19,-11.08 6.31,0 4.97,8.98 3.18,11.08 -1.52,1.6 -1.91,5.84 -1.93,7.49 31.74,-2 60.34,-42.71 60.34,-42.71 v -15.89 h -7.52 c -10.63,-9.76 -51.36,-29.16 -61.82,-29.16 -10.38,0 -8.58,-5.43 -8.58,-13.05 0,-7.33 7.96,-6.93 8.79,-6.85 -0.06,-1.47 -0.45,-5.87 -1.98,-7.59 -1.9,-2.08 -3.19,-11.05 3.22,-11.05 6.45,0 5.09,8.97 3.2,11.05 -1.45,1.72 -1.83,5.89 -1.96,7.51 32.4,-2 61.63,-42.69 61.63,-42.69 v -15.92 h -6.48 c -10.76,-9.72 -52.15,-29.14 -62.75,-29.14 -10.51,0 -8.74,-5.44 -8.74,-13.07 0,-7.26 8.08,-6.88 9,-6.8 -0.14,-1.51 -0.53,-5.87 -2.06,-7.62 -1.97,-2.04 -3.31,-11.05 3.26,-11.05 6.59,0 5.15,9.01 3.33,11.05 -1.56,1.7 -1.96,5.93 -2,7.54 32.86,-2.05 62.55,-42.69 62.55,-42.69 v -15.95 h -8.54 c -11.01,-9.72 -53.37,-29.15 -64.18,-29.15 -10.75,0 -8.97,-5.4 -8.97,-13.02 0,-7.33 8.31,-6.93 9.14,-6.85 -0.07,-1.5 -0.48,-5.87 -2.03,-7.56 -2.02,-2.11 -3.39,-11.13 3.32,-11.13 6.69,0 5.26,9.02 3.37,11.13 -1.55,1.64 -2,5.87 -2.02,7.48 33.6,-2.05 63.98,-42.65 63.98,-42.65 v -15.9 h -8.35 c -11.2,-9.8 -54.5,-29.24 -65.55,-29.24 -11.02,0 -9.13,-5.4 -9.13,-13.03 0,-7.26 8.47,-6.87 9.31,-6.78 -0.09,-1.53 -0.5,-5.88 -2.08,-7.63 -2.03,-2.05 -3.44,-11.03 3.4,-11.03 6.86,0 5.4,8.98 3.45,11.03 -1.61,1.66 -2.03,5.92 -2.11,7.54 34.41,-2.06 65.44,-42.7 65.44,-42.7 v -15.86 h -6.93 c -11.44,-9.81 -55.32,-29.18 -66.58,-29.18 -11.18,0 -9.31,-5.5 -9.31,-13.12 0,-7.24 8.57,-6.85 9.54,-6.81 -0.14,-1.5 -0.57,-5.87 -2.17,-7.52 -2.05,-2.1 -3.5,-11.12 3.46,-11.12 6.94,0 5.51,9.02 3.51,11.12 -1.66,1.61 -2.06,5.83 -2.14,7.48 34.9,-2 66.39,-42.69 66.39,-42.69 v -15.89 h -9.16 c -11.72,-9.81 -56.7,-29.2 -68.21,-29.2 -11.41,0 -9.49,-5.4 -9.49,-13.07 0,-7.28 8.79,-6.88 9.72,-6.84 -0.12,-1.44 -0.53,-5.83 -2.22,-7.54 -2.06,-2.08 -3.55,-11.06 3.6,-11.06 7.15,0 5.62,8.98 3.58,11.06 -1.65,1.71 -2.11,5.88 -2.23,7.5 35.73,-2 68,-42.7 68,-42.7 v -15.89 h -7 c -11.87,-9.78 -57.54,-29.14 -69.22,-29.14 -11.65,0 -9.68,-5.45 -9.68,-13.13 0,-7.28 8.98,-6.85 9.84,-6.76 -0.07,-1.51 -0.54,-5.88 -2.19,-7.61 -2.14,-2.08 -3.64,-11.07 3.62,-11.07 7.21,0 5.72,8.99 3.6,11.07 -1.72,1.68 -2.1,5.87 -2.19,7.52 36.3,-2.04 69.01,-42.69 69.01,-42.69 v -15.93 h -10.12 c -12.19,-11.08 -59,-32.99 -70.99,-32.99 -11.95,0 -9.91,-6.23 -9.91,-14.9 0,-8.24 9.15,-7.76 10.1,-7.67 -0.11,-1.73 -0.55,-6.71 -2.26,-8.67 -2.21,-2.3 -3.75,-12.51 3.72,-12.51 7.4,0 5.78,10.21 3.67,12.51 -1.74,1.92 -2.2,6.67 -2.28,8.58 37.23,-2.35 70.79,-48.39 70.79,-48.39 v -18.05 h -10.45 c -12.51,-12.5 -60.55,-37.25 -72.85,-37.25 -12.24,0 -10.15,-6.92 -10.15,-16.72 0,-9.28 9.41,-8.76 10.34,-8.66 -0.09,-1.93 -0.54,-7.5 -2.29,-9.72 -2.26,-2.67 -3.82,-14.07 3.78,-14.07 7.65,0 6.01,11.4 3.81,14.07 -1.76,2.13 -2.23,7.54 -2.34,9.62 38.24,-2.61 72.66,-54.49 72.66,-54.49 v -20.3 h -11.6 c -12.84,-13.03 -62.24,-38.79 -74.89,-38.79 -12.6,0 -10.47,-7.22 -10.47,-17.38 0,-9.68 9.69,-9.16 10.65,-9.01 -0.1,-2.01 -0.57,-7.85 -2.4,-10.07 -2.3,-2.76 -3.88,-14.73 3.93,-14.73 7.83,0 6.14,11.97 3.91,14.73 -1.82,2.18 -2.3,7.8 -2.39,9.92 39.3,-2.65 74.7,-56.66 74.7,-56.66 v -21.08 c 0,0 14.88,-6.21 14.88,-39.17 v -110.09 h -103.42 v 2075.52 l -82.03,191.32 -25.96,266.06 -119.46,315.3 c -21.12,14.8 -37.41,0 -37.41,0 l -202.69,-278.91 -168.06,-70.02 v -244.55 l -265.89,-85.54 v -2023.4 h -9.07 l -14.59,25.07 h -6.39 v 53.82 l 10.03,13.63 h 3.07 v 30.72 h -33.16 v 26.3 h -2.25 l -15.51,776.92 h 3.17 v 84.8 c 0,0 12.34,7.3 12.34,19.38 0,12.08 7.1,18.68 7.1,18.68 v 6.64 h 3.38 v 25.28 h -25.55 c 0,0 9.59,5.02 9.59,17.3 0,12.33 -9.78,14.77 -18.45,12.76 -8.69,-1.91 -1.15,-14.31 -20.55,-8.41 0,0 -43.56,17.66 -45.66,27.69 -2.12,10.06 -1.52,23.86 -18.86,23.86 -17.33,0 -10.75,-19.41 -25.28,-19.41 -14.5,0 -14.5,0 -14.5,0 0,0 0,0 -14.53,0 -14.49,0 -7.98,19.41 -25.31,19.41 -17.33,0 -16.72,-13.8 -18.86,-23.86 -2.11,-10.03 -45.67,-27.69 -45.67,-27.69 -19.36,-5.9 -11.82,6.5 -20.5,8.41 -8.66,2.01 -18.45,-0.43 -18.45,-12.76 0,-12.28 9.56,-17.3 9.56,-17.3 h -25.53 v -25.28 h 3.43 v -6.64 c 0,0 7.08,-6.6 7.08,-18.68 0,-12.08 12.28,-19.38 12.28,-19.38 v -84.8 h 3.18 l -15.46,-776.92 h -2.33 v -26.3 h -33.1 v -30.72 h 3.02 l 10.04,-13.63 v -53.82 h -6.37 l -14.62,-25.07 h -10.09 l -56,1511.88 c 10.95,2.34 18.65,5.79 18.65,10.76 v 111.7 l -2.83,2.8 v 6.97 c 0,0 22.35,3.91 22.35,13.18 v 65.89 l 28.44,21.31 c 0,0 11.52,7.49 21.18,13.74 0,0 10.73,6.75 13.97,12.61 3.31,5.87 32.9,73.35 32.9,73.35 v 47.53 c 0,0 1.78,1.66 1.78,10.93 0,0.65 -0.21,10.33 -12.22,13.6 V 4038 c 0,0 -14.1,21.39 -58.04,21.39 v 5.65 c 0,0 -9.08,12.46 -30.65,12.46 l 7.68,6.11 12.64,59.31 c 0,0 1.47,4.95 -8.54,11.57 -10.1,6.63 -52.02,36.99 -52.02,36.99 v 44.35 c 0,0 -2.42,8.67 -28.25,13.38 l -5.27,292.86 h -3.88 l -5.29,251.48 h -2.94 l 1.34,278.49 h -4.29 l -8.22,339.19 c 0,0 -0.4,9.27 -10.96,9.27 -10.53,0 -11.06,-9.27 -11.06,-9.27 l -8.21,-339.19 h -4.23 l 1.28,-278.49 h -2.97 l -5.27,-251.48 h -3.75 l -5.41,-292.86 c -25.8,-4.71 -28.23,-13.38 -28.23,-13.38 v -44.35 c 0,0 -41.91,-30.36 -52.04,-36.99 -10.01,-6.62 -8.52,-11.57 -8.52,-11.57 l 12.64,-59.31 7.77,-6.11 c -21.59,0 -30.73,-12.46 -30.73,-12.46 v -5.65 c -43.84,0 -58.09,-21.39 -58.09,-21.39 v -15.48 c -11.99,-3.27 -12.18,-12.95 -12.18,-13.6 0,-9.27 1.87,-10.93 1.87,-10.93 v -47.53 c 0,0 29.5,-67.48 32.78,-73.35 3.36,-5.86 14.12,-12.61 14.12,-12.61 9,-6.47 21.06,-13.74 21.06,-13.74 l 28.56,-21.31 v -65.89 c 0,-9.27 22.22,-13.18 22.22,-13.18 v -6.97 l -2.85,-2.8 v -111.7 c 0,-4.97 7.81,-8.42 18.76,-10.76 L 6344.48,1976.08 6015.44,3950 4847.18,4264.52 H 4257.39 L 4009.36,2596.06 c -22.22,394.81 -34.76,874.55 -34.76,1412.28 0,804.37 50.68,1407.46 61.31,1523.92 0,0 -5.14,6.54 -24.26,14.41 -6.35,2.64 -14.26,5.44 -23.98,8.08 -7.04,2.08 -15,3.99 -24.16,5.78 -7.45,1.61 -15.49,3.06 -24.34,4.38 -7.58,1.15 -15.64,2.25 -24.45,3.27 -7.66,0.85 -15.84,1.66 -24.42,2.46 -7.67,0.52 -15.88,1.07 -24.45,1.58 -7.77,0.47 -15.98,0.81 -24.47,1.11 -7.85,0.34 -15.96,0.51 -24.46,0.68 -7.36,0.08 -15.01,0.13 -22.89,0.13 h -1.44 c -7.88,0 -15.48,-0.05 -22.8,-0.13 -8.55,-0.17 -16.75,-0.34 -24.59,-0.68 -8.42,-0.3 -16.6,-0.64 -24.36,-1.11 -8.61,-0.51 -16.79,-1.06 -24.49,-1.58 -8.57,-0.8 -16.77,-1.61 -24.45,-2.46 -8.75,-1.02 -16.86,-2.12 -24.34,-3.27 -8.88,-1.32 -17,-2.77 -24.31,-4.38 -9.14,-1.79 -17.22,-3.7 -24.28,-5.78 -9.71,-2.64 -17.61,-5.49 -23.98,-8.12 -19.08,-7.91 -24.22,-14.37 -24.22,-14.37 10.57,-116.46 61.3,-719.55 61.3,-1523.92 0,-874.87 -33.12,-1596.36 -87.27,-2047.85 h -17.72 v 2207.83 h -53.38 v 50.81 h 11.6 v 52.38 h 55.27 v 6.66 l -142.05,122.35 h -195.55 v 11.96 h -90.21 v -11.96 h -195.53 l -142.09,-122.35 v -6.66 h 55.25 v -52.38 h 11.63 v -50.81 h -53.38 V 1960.49 h -61.83 v 1085.36 l -48.37,1958.58 h -55.73 v 9.06 h -15.24 v -9.06 h -18.07 v 9.06 h -15.31 v -9.06 h -18.08 v 9.06 h -15.3 v -9.06 h -18.09 v 9.06 h -15.3 v -9.06 h -16 v 9.06 h -15.28 v -9.06 h -16.01 v 9.06 h -15.29 v -9.06 h -18 v 9.06 h -15.31 v -9.06 h -18.07 v 9.06 h -15.31 v -9.06 h -18.09 v 9.06 h -15.3 v -9.06 h -55.74 L 2220.56,3045.85 V 1960.49 h -106.64 v 180.41 c 0,0 4.76,5.79 4.76,21.18 0,0 73.54,16.87 73.54,48.98 0,32.14 -136.58,54.65 -144.4,95.15 0,0 -0.46,11.27 -9.77,17.3 v 23.12 c 0,0 81.95,43.85 81.95,76.16 0,32.27 -188.75,77.09 -188.75,109.88 0,0 0.55,14.75 -3.8,19.55 v 33.06 c 0,0 83.81,45.7 83.81,85.64 0,39.98 -161.24,87.55 -220.95,153.73 -59.74,66.13 -45.24,61.7 -45.24,80.44 0,18.85 -17.86,20.25 -17.86,33.3 0,12.95 -6.26,14.65 -3.47,27.65 2.89,13.05 27.44,65.56 -18.12,68.96 -45.51,-3.4 -20.95,-55.91 -18.14,-68.96 2.85,-13 -3.46,-14.7 -3.46,-27.65 0,-13.05 -17.84,-14.45 -17.84,-33.3 0,-18.74 14.56,-14.31 -45.2,-80.44 C 1561.21,2758.47 1400,2710.9 1400,2670.92 c 0,-39.94 83.78,-85.64 83.78,-85.64 v -33.06 c -4.32,-4.8 -3.73,-19.55 -3.73,-19.55 0,-32.79 -188.8,-77.61 -188.8,-109.88 0,-32.31 82.01,-76.16 82.01,-76.16 v -23.12 c -9.38,-6.03 -9.81,-17.3 -9.81,-17.3 -7.83,-40.5 -144.41,-63.01 -144.41,-95.15 0,-32.11 73.51,-48.98 73.51,-48.98 0,-15.39 4.8,-21.18 4.8,-21.18 V 1960.49 H 950 c -110.457,0 -200,-89.54 -200,-200 h 8500 c 0,110.46 -89.54,200 -200,200" /><path
         id="path28"
         style="fill:#162a3b;fill-opacity:1;fill-rule:nonzero;stroke:none"
         d="M 4141.56,1053.76 V 910.891 h 72.39 c 51.22,0 83.64,25.379 83.64,70.968 0,45.581 -32.89,71.901 -83.64,71.901 z m 0,149.45 v -131.12 h 58.75 c 49.35,0 80.84,22.09 80.84,65.32 0,42.78 -31.49,65.8 -81.31,65.8 z m -46.99,18.32 h 120.31 c 70.5,0 112.33,-30.07 112.33,-81.76 0,-38.55 -23.5,-64.86 -64.86,-75.67 52.16,-8.93 83.65,-39.48 83.65,-84.6 0,-54.039 -44.17,-86.941 -116.55,-86.941 h -134.88 v 328.971" /><path
         id="path30"
         style="fill:#162a3b;fill-opacity:1;fill-rule:nonzero;stroke:none"
         d="m 4421.21,1221.53 h 232.64 v -18.32 h -185.64 v -133.47 h 171.54 v -18.33 H 4468.21 V 910.891 h 190.34 v -18.332 h -237.34 v 328.971" /><path
         id="path32"
         style="fill:#162a3b;fill-opacity:1;fill-rule:nonzero;stroke:none"
         d="m 4728.59,1221.53 h 47 V 892.559 h -47 v 328.971" /><path
         id="path34"
         style="fill:#162a3b;fill-opacity:1;fill-rule:nonzero;stroke:none"
         d="m 5030.32,1007.71 c 0,-81.308 -42.77,-118.909 -102.93,-118.909 -68.61,0 -93.99,51.23 -94.93,67.668 h 19.27 c 1.41,-14.098 23.03,-44.637 63.45,-44.637 42.29,0 69.08,31.008 69.08,84.598 v 225.1 h 46.06 v -213.82" /><path
         id="path36"
         style="fill:#162a3b;fill-opacity:1;fill-rule:nonzero;stroke:none"
         d="m 5115.87,1221.53 h 46.99 V 892.559 h -46.99 v 328.971" /><path
         id="path38"
         style="fill:#162a3b;fill-opacity:1;fill-rule:nonzero;stroke:none"
         d="m 5273.31,892.559 h -18.8 v 328.971 h 18.8 l 234.98,-261.76 v 261.76 h 18.8 V 892.559 h -18.8 L 5273.31,1154.34 V 892.559" /><path
         id="path40"
         style="fill:#162a3b;fill-opacity:1;fill-rule:nonzero;stroke:none"
         d="m 5774.79,1046.71 h 130.64 V 944.73 c -25.37,-38.539 -75.2,-55.929 -131.59,-55.929 -119.37,0 -173.89,76.597 -173.89,169.189 0,95.4 56.87,166.83 163.56,166.83 70.95,0 131.59,-31.01 141.92,-103.38 h -46.99 c -6.58,53.1 -42.77,86.47 -96.82,86.47 -80.36,0 -112.79,-75.66 -112.79,-151.33 0,-78.021 37.6,-150.869 121.25,-150.869 33.84,0 69.09,11.289 88.36,36.187 v 86.482 h -83.65 v 18.33" /></g></g></svg>