<svg
   xmlns:dc="http://purl.org/dc/elements/1.1/"
   xmlns:cc="http://creativecommons.org/ns#"
   xmlns:rdf="http://www.w3.org/1999/02/22-rdf-syntax-ns#"
   xmlns:svg="http://www.w3.org/2000/svg"
   xmlns="http://www.w3.org/2000/svg"
   viewBox="0 0 415.42001 77.211731"
   height="77.211731"
   width="415.42001"
   xml:space="preserve"
   id="svg2"
   version="1.1"><metadata
     id="metadata8"><rdf:RDF><cc:Work
         rdf:about=""><dc:format>image/svg+xml</dc:format><dc:type
           rdf:resource="http://purl.org/dc/dcmitype/StillImage" /></cc:Work></rdf:RDF></metadata><defs
     id="defs6"><clipPath
       id="clipPath24"
       clipPathUnits="userSpaceOnUse"><path
         id="path22"
         d="M 0,57.909 H 311.565 V 0 H 0 Z" /></clipPath></defs><g
     transform="matrix(1.3333333,0,0,-1.3333333,0,77.211733)"
     id="g10"><path
       id="path12"
       style="fill:#11253e;fill-opacity:1;fill-rule:nonzero;stroke:none"
       d="M 0,0 H 311.565 V 57.909 H 0 Z" /><g
       transform="translate(74.8165,27.4377)"
       id="g14"><path
         id="path16"
         style="fill:#ffffff;fill-opacity:1;fill-rule:evenodd;stroke:none"
         d="m 0,0 7.251,-13.81 2.68,1.914 -6.104,11.93 z" /></g><g
       id="g18"><g
         clip-path="url(#clipPath24)"
         id="g20"><g
           transform="translate(72.609,27.9875)"
           id="g26"><path
             id="path28"
             style="fill:#ffffff;fill-opacity:1;fill-rule:evenodd;stroke:none"
             d="m 0,0 c 0,0 -0.764,-8.86 -6.171,-11.872 l 2.009,-2.583 c 0,0 5.578,2.571 7.624,14.455 z" /></g><path
           id="path30"
           style="fill:#ffffff;fill-opacity:1;fill-rule:evenodd;stroke:none"
           d="m 57.682,37.166 h 3.445 V 22.813 H 57.682 Z M 65.72,13.628 h -3.445 v 29.853 h 3.445 v -9.185 h 3.445 V 30.851 H 65.72 Z" /><g
           transform="translate(85.2394,26.2585)"
           id="g32"><path
             id="path34"
             style="fill:#ffffff;fill-opacity:1;fill-rule:evenodd;stroke:none"
             d="M 0,0 H -18.371 V 3.444 H 0" /></g><path
           id="path36"
           style="fill:#ffffff;fill-opacity:1;fill-rule:evenodd;stroke:none"
           d="m 68.016,40.037 h 5.741 v -3.445 h -5.741 z" /><path
           id="path38"
           style="fill:#ffffff;fill-opacity:1;fill-rule:evenodd;stroke:none"
           d="m 72.609,43.481 h 3.445 v -15.5 h -3.445 z" /><path
           id="path40"
           style="fill:#ffffff;fill-opacity:1;fill-rule:evenodd;stroke:none"
           d="M 66.868,29.703 H 85.239 V 26.259 H 66.868 Z" /><g
           transform="translate(79.4982,40.0368)"
           id="g42"><path
             id="path44"
             style="fill:#ffffff;fill-opacity:1;fill-rule:evenodd;stroke:none"
             d="m 0,0 h -4.593 v -3.445 h 2.297 0.574 1.148 C -0.257,-3.445 0,-3.702 0,-4.019 v -1.148 -1.722 -4.593 h 3.445 v 8.037 C 3.445,-1.542 1.902,0 0,0" /></g><path
           id="path46"
           style="fill:#ffffff;fill-opacity:1;fill-rule:evenodd;stroke:none"
           d="m 89.832,38.888 h 3.444 v -9.186 h -3.444 z" /><path
           id="path48"
           style="fill:#ffffff;fill-opacity:1;fill-rule:evenodd;stroke:none"
           d="m 102.463,32.573 h 3.444 V 13.628 h -3.444 z" /><path
           id="path50"
           style="fill:#ffffff;fill-opacity:1;fill-rule:evenodd;stroke:none"
           d="m 108.203,43.481 h 3.445 v -3.444 h -3.445 z" /><path
           id="path52"
           style="fill:#ffffff;fill-opacity:1;fill-rule:evenodd;stroke:none"
           d="M 89.832,23.388 H 97.87 V 19.943 H 89.832 Z" /><g
           transform="translate(97.8693,42.3332)"
           id="g54"><path
             id="path56"
             style="fill:#ffffff;fill-opacity:1;fill-rule:evenodd;stroke:none"
             d="m 0,0 h -8.037 v -3.445 h 7.463 C -0.257,-3.445 0,-3.702 0,-4.019 v -1.148 -3.445 -2.87 h 3.445 v 8.037 C 3.445,-1.542 1.903,0 0,0" /></g><g
           transform="translate(97.8693,29.7028)"
           id="g58"><path
             id="path60"
             style="fill:#ffffff;fill-opacity:1;fill-rule:evenodd;stroke:none"
             d="m 0,0 h -8.037 v -3.444 h 7.463 C -0.257,-3.444 0,-3.702 0,-4.019 v -1.148 -0.574 -4.592 h 3.445 v 6.889 C 3.445,-1.542 1.903,0 0,0" /></g><g
           transform="translate(97.8693,23.9621)"
           id="g62"><path
             id="path64"
             style="fill:#ffffff;fill-opacity:1;fill-rule:evenodd;stroke:none"
             d="m 0,0 v -4.593 -0.574 -1.148 c 0,-0.317 -0.257,-0.574 -0.574,-0.574 h -1.148 -0.574 -3.445 v -3.445 H 0 c 1.903,0 3.445,1.542 3.445,3.445 V 0 Z" /></g><g
           transform="translate(113.9445,40.0368)"
           id="g66"><path
             id="path68"
             style="fill:#ffffff;fill-opacity:1;fill-rule:evenodd;stroke:none"
             d="m 0,0 h -2.871 -3.444 -1.723 c -1.902,0 -3.444,-1.542 -3.444,-3.445 v -4.593 h 3.444 v 2.871 1.148 c 0,0.317 0.258,0.574 0.575,0.574 h 1.148 1.148 2.296 1.148 1.149 C -0.257,-3.445 0,-3.702 0,-4.019 v -1.148 -2.871 h 3.444 v 4.593 C 3.444,-1.542 1.902,0 0,0" /></g><path
           id="path70"
           style="fill:#ffffff;fill-opacity:1;fill-rule:evenodd;stroke:none"
           d="m 121.982,41.185 h 3.445 v -4.593 h -3.445 z" /><path
           id="path72"
           style="fill:#ffffff;fill-opacity:1;fill-rule:evenodd;stroke:none"
           d="m 132.316,43.481 h 3.444 V 26.832 h -3.444 z" /><path
           id="path74"
           style="fill:#ffffff;fill-opacity:1;fill-rule:evenodd;stroke:none"
           d="m 140.353,43.481 h 3.444 V 26.832 h -3.444 z" /><path
           id="path76"
           style="fill:#ffffff;fill-opacity:1;fill-rule:evenodd;stroke:none"
           d="m 128.871,40.037 h 18.372 v -3.445 h -18.372 z" /><path
           id="path78"
           style="fill:#ffffff;fill-opacity:1;fill-rule:evenodd;stroke:none"
           d="M 127.723,29.703 H 148.39 V 26.259 H 127.723 Z" /><path
           id="path80"
           style="fill:#ffffff;fill-opacity:1;fill-rule:evenodd;stroke:none"
           d="m 140.353,29.129 h 3.444 v -10.86 h -3.444 z" /><g
           transform="translate(127.7228,17.0729)"
           id="g82"><path
             id="path84"
             style="fill:#ffffff;fill-opacity:1;fill-rule:evenodd;stroke:none"
             d="M 0,0 H -0.574 -1.722 C -2.04,0 -2.296,0.257 -2.296,0.574 V 1.722 2.87 6.315 18.371 H -5.741 V 1.722 0 c 0,-1.903 1.542,-3.445 3.445,-3.445 H 21.816 V 0 Z" /></g><path
           id="path86"
           style="fill:#ffffff;fill-opacity:1;fill-rule:evenodd;stroke:none"
           d="m 156.428,40.037 h 3.444 v -9.186 h -3.444 z" /><g
           transform="translate(165.0392,29.7028)"
           id="g88"><path
             id="path90"
             style="fill:#ffffff;fill-opacity:1;fill-rule:evenodd;stroke:none"
             d="M 0,0 H -6.315 C -8.217,0 -9.76,-1.542 -9.76,-3.444 v -6.89 h 3.445 v 5.167 c 0,0.951 0.771,1.723 1.722,1.723 H 0 Z" /></g><g
           transform="translate(173.0768,34.2956)"
           id="g92"><path
             id="path94"
             style="fill:#ffffff;fill-opacity:1;fill-rule:evenodd;stroke:none"
             d="M 0,0 H -0.574 -1.722 C -2.04,0 -2.296,0.257 -2.296,0.574 V 1.722 2.296 3.445 9.186 H -5.741 V 2.296 0 c 0,-1.902 1.542,-3.444 3.445,-3.444 h 8.611 l 0,3.444 z" /></g><g
           transform="translate(174.799,29.7028)"
           id="g96"><path
             id="path98"
             style="fill:#ffffff;fill-opacity:1;fill-rule:evenodd;stroke:none"
             d="m 0,0 h -10.334 v -3.444 h 7.463 1.149 1.148 C -0.257,-3.444 0,-3.702 0,-4.019 v -1.148 -0.574 -4.593 h 3.445 v 6.89 C 3.445,-1.542 1.902,0 0,0" /></g><g
           transform="translate(135.7423,27.4245)"
           id="g100"><path
             id="path102"
             style="fill:#ffffff;fill-opacity:1;fill-rule:evenodd;stroke:none"
             d="m 0,0 c 0,0 -0.935,-7.211 -5.938,-9.27 l -2.082,1.884 c 0,0 4.844,3.51 4.557,7.386 z" /></g><g
           transform="translate(162.5934,42.5065)"
           id="g104"><path
             id="path106"
             style="fill:#ffffff;fill-opacity:1;fill-rule:evenodd;stroke:none"
             d="m 0,0 c 0,0 -3.596,-6.196 -8.599,-8.755 l -2.238,2.8 c 0,0 4.54,1.589 7.889,7.713 z" /></g><g
           transform="translate(166.8571,21.2228)"
           id="g108"><path
             id="path110"
             style="fill:#ffffff;fill-opacity:1;fill-rule:evenodd;stroke:none"
             d="m 0,0 13.731,-4.628 -1.388,-3.015 -13.73,4.534 z" /></g><g
           transform="translate(170.8795,36.5231)"
           id="g112"><path
             id="path114"
             style="fill:#ffffff;fill-opacity:1;fill-rule:nonzero;stroke:none"
             d="M 0,0 C 1.312,0.483 2.624,1.015 3.904,1.582 5.32,2.209 6.705,2.896 8.02,3.625 L 6.42,6.471 C 4.401,5.364 2.245,4.371 0,3.512 L -3.303,2.34 C -5.198,1.729 -7.078,1.214 -8.896,0.811 l -0.616,-0.137 0.732,-3.219 0.615,0.144 c 0.963,0.225 1.917,0.465 2.835,0.713 0.665,0.178 1.344,0.373 2.027,0.581 0,0 2.98,0.963 3.303,1.107" /></g><g
           transform="translate(165.6193,17.8566)"
           id="g116"><path
             id="path118"
             style="fill:#ffffff;fill-opacity:1;fill-rule:nonzero;stroke:none"
             d="M 0,0 C -0.936,-0.874 -2.273,-1.656 -3.979,-2.329 -5.82,-3.055 -8.377,-3.68 -11.581,-4.187 l -0.617,-0.098 -0.533,3.285 0.62,0.1 c 2.544,0.414 4.591,0.887 6.085,1.404 1.458,0.505 2.58,1.072 3.333,1.686 0.709,0.578 1.172,1.224 1.376,1.919 0.223,0.761 0.336,1.614 0.336,2.535 V 7.253 H 2.322 V 6.644 C 2.322,5.838 2.275,5.066 2.181,4.349 2.115,3.841 2,3.352 1.838,2.885 1.838,2.885 1.693,2.063 1.247,1.363 0.774,0.621 0,0 0,0" /></g><g
           transform="translate(113.9445,32.5734)"
           id="g120"><path
             id="path122"
             style="fill:#ffffff;fill-opacity:1;fill-rule:evenodd;stroke:none"
             d="m 0,0 v -1.148 -1.148 c 0,-0.317 -0.257,-0.575 -0.574,-0.575 h -1.149 -5.74 -1.149 L -9.76,-6.315 H 0 c 1.902,0 3.444,1.542 3.444,3.444 V 0 Z" /></g><g
           transform="translate(36.2345,48.1061)"
           id="g124"><path
             id="path126"
             style="fill:#ff3900;fill-opacity:1;fill-rule:evenodd;stroke:none"
             d="m 0,0 h -14.726 c -4.174,0 -6.82,-0.016 -9.321,-2.517 -2.508,-2.507 -2.523,-5.167 -2.523,-9.328 V -26.57 c 0,-4.175 0.016,-6.821 2.517,-9.322 2.509,-2.509 5.166,-2.523 9.327,-2.523 H 0 c 4.174,0 6.82,0.015 9.322,2.517 2.507,2.507 2.523,5.167 2.523,9.328 v 14.725 c 0,4.175 -0.016,6.821 -2.517,9.322 C 6.819,-0.015 4.161,0 0,0" /></g><g
           transform="translate(44.7604,19.9377)"
           id="g128"><path
             id="path130"
             style="fill:#11253e;fill-opacity:1;fill-rule:evenodd;stroke:none"
             d="m 0,0 c -2.363,-2.644 -7.357,-2.059 -11.34,1.251 -0.05,-0.206 -1.979,-8.138 -4.2,-11.469 -0.007,-0.01 -0.014,-0.019 -0.021,-0.029 h -7.688 c -4.161,0 -6.819,0.015 -9.328,2.523 -2.169,2.17 -2.468,4.45 -2.51,7.742 3.998,0.655 7.921,-0.475 7.921,-0.475 l 10.124,10.884 c -0.725,0.453 -1.487,1.006 -2.254,1.642 -3.013,2.497 -4.434,5.362 -3.996,6.495 0.379,0.984 4.202,-0.203 7.215,-2.7 0.844,-0.7 1.581,-1.414 2.184,-2.104 0.173,0.123 0.355,0.235 0.544,0.335 -0.574,0.799 -1.125,1.748 -1.604,2.802 -1.62,3.563 -1.445,7.034 -0.423,7.593 0.91,0.497 3.822,-1.747 5.442,-5.31 0.762,-1.675 1.207,-3.314 1.321,-4.646 1.911,-0.418 3.932,-1.446 5.716,-3.041 C 1.146,7.879 2.443,2.733 0,0" /></g><g
           transform="translate(20.1681,19.0324)"
           id="g132"><path
             id="path134"
             style="fill:#ad8c63;fill-opacity:1;fill-rule:evenodd;stroke:none"
             d="m 0,0 h -10.473 c -0.03,0.805 -0.031,1.671 -0.031,2.616 V 13.505 H 0 c 0.166,0 0.3,-0.134 0.3,-0.3 L 0.3,0.3 C 0.3,0.134 0.166,0 0,0" /></g><path
           id="path136"
           style="fill:#b79b7b;fill-opacity:1;fill-rule:evenodd;stroke:none"
           d="m 12.62,32.538 h 2.325 V 19.033 H 12.62 Z" /><g
           transform="translate(35.9,32.1247)"
           id="g138"><path
             id="path140"
             style="fill:#ffffff;fill-opacity:1;fill-rule:evenodd;stroke:none"
             d="m 0,0 c 1.019,0 1.846,-0.826 1.846,-1.846 0,-1.019 -0.827,-1.845 -1.846,-1.845 -1.02,0 -1.846,0.826 -1.846,1.845 C -1.846,-0.826 -1.02,0 0,0" /></g><g
           transform="translate(36.3815,30.8166)"
           id="g142"><path
             id="path144"
             style="fill:#1d1f1f;fill-opacity:1;fill-rule:evenodd;stroke:none"
             d="m 0,0 c -0.603,0 -1.091,-0.489 -1.091,-1.091 0,-0.114 0.017,-0.223 0.049,-0.326 -0.362,0.188 -0.61,0.565 -0.61,1.001 0,0.622 0.505,1.127 1.127,1.127 0.535,0 0.983,-0.374 1.097,-0.875 C 0.406,-0.061 0.21,0 0,0" /></g><g
           transform="translate(44.7516,19.9357)"
           id="g146"><path
             id="path148"
             style="fill:#ffffff;fill-opacity:1;fill-rule:evenodd;stroke:none"
             d="M 0,0 C -1.486,-1.663 -4.014,-2.047 -6.676,-1.281 -7.073,0.78 -6.45,2.74 -5.098,4.253 -3.592,5.937 -1.536,6.675 0.766,6.148 1.561,3.805 1.364,1.526 0,0" /></g><g
           transform="translate(44.2052,24.8527)"
           id="g150"><path
             id="path152"
             style="fill:#11253e;fill-opacity:1;fill-rule:evenodd;stroke:none"
             d="m 0,0 c 0.328,0 0.594,-0.26 0.594,-0.582 0,-0.321 -0.266,-0.582 -0.594,-0.582 -0.328,0 -0.594,0.261 -0.594,0.582 C -0.594,-0.26 -0.328,0 0,0" /></g><g
           transform="translate(21.6666,47.2829)"
           id="g154"><path
             id="path156"
             style="fill:#ff3900;fill-opacity:1;fill-rule:nonzero;stroke:none"
             d="m 0,0 c -4.046,0 -6.488,0 -8.831,-2.342 -2.349,-2.349 -2.349,-4.791 -2.349,-8.837 v -14.41 c 0,-4.046 0,-6.489 2.344,-8.831 2.348,-2.349 4.791,-2.349 8.836,-2.349 h 14.41 c 4.046,0 6.488,0 8.831,2.343 2.349,2.349 2.349,4.791 2.349,8.837 v 14.41 c 0,4.046 0,6.489 -2.343,8.831 C 20.899,0 18.456,0 14.41,0 Z M 14.41,-37.592 H 0 c -4.112,0 -6.829,0 -9.418,2.59 -2.584,2.584 -2.584,5.3 -2.584,9.413 v 14.41 c 0,4.112 0,6.829 2.589,9.419 2.584,2.583 5.301,2.583 9.413,2.583 h 14.41 c 4.112,0 6.83,0 9.419,-2.589 2.584,-2.584 2.584,-5.3 2.584,-9.413 v -14.41 c 0,-4.112 0,-6.829 -2.59,-9.419 -2.584,-2.584 -5.301,-2.584 -9.413,-2.584" /></g><g
           transform="translate(301.7701,18.5358)"
           id="g158"><path
             id="path160"
             style="fill:#ffffff;fill-opacity:1;fill-rule:nonzero;stroke:none"
             d="m 0,0 c 0,-0.421 -0.343,-0.764 -0.764,-0.764 h -20.801 v 21.97 H 0 Z M -24.594,24.233 V -3.792 h 24.273 c 1.85,0 3.349,1.5 3.349,3.349 v 24.676 z m 6.333,-22.738 h 3.665 c 1.16,2.42 3.054,7.012 3.766,12.385 h 3.358 V 7.75 c 0,-2.143 -0.217,-4.234 -0.63,-6.255 h 3.21 c 0.406,2.022 0.621,4.113 0.621,6.255 v 6.13 h 2.167 v 2.912 h -2.167 v 2.526 H -7.472 V 16.792 H -19.329 V 13.88 h 5.208 C -15.022,7.8 -17.583,2.75 -18.261,1.495 m -10.992,2.199 v 2.813 h -12.082 v 2.362 h 11.484 v 2.978 h -11.484 v 2.362 h 11.484 v 2.978 h -11.484 v 2.362 h 12.082 v 2.813 h -3.85 v 2.325 h -3.07 l -0.712,-2.325 h -12.376 l -0.713,2.325 h -3.069 v -2.325 h -3.85 v -2.813 h 12.082 v -2.362 h -11.484 v -2.978 h 11.484 V 11.847 H -56.295 V 8.869 h 11.484 V 6.507 H -56.893 V 3.694 h 11.06 c -2.64,-2.987 -7.272,-4.41 -11.06,-4.426 v -3.091 c 3.581,0.01 6.936,0.876 9.707,2.505 1.668,0.98 3.052,2.195 4.111,3.587 1.057,-1.392 2.442,-2.607 4.109,-3.587 2.772,-1.629 6.129,-2.495 9.713,-2.505 v 3.091 c -3.791,0.016 -8.428,1.439 -11.068,4.426 z" /></g><g
           transform="translate(209.819,48.152)"
           id="g162"><path
             id="path164"
             style="fill:#ffc300;fill-opacity:1;fill-rule:evenodd;stroke:none"
             d="m 0,0 h 16.251 c 3.853,0 5.249,-0.401 6.657,-1.154 1.409,-0.753 2.514,-1.858 3.267,-3.266 0.753,-1.409 1.154,-2.806 1.154,-6.658 v -16.251 c 0,-3.852 -0.401,-5.249 -1.154,-6.657 -0.753,-1.409 -1.858,-2.514 -3.267,-3.267 -1.408,-0.753 -2.804,-1.154 -6.657,-1.154 H 0 c -3.852,0 -5.249,0.401 -6.657,1.154 -1.408,0.753 -2.514,1.858 -3.267,3.267 -0.753,1.408 -1.154,2.805 -1.154,6.657 v 16.251 c 0,3.852 0.401,5.249 1.154,6.658 0.753,1.408 1.859,2.513 3.267,3.266 C -5.249,-0.401 -3.852,0 0,0" /></g><g
           transform="translate(231.3371,23.7609)"
           id="g166"><path
             id="path168"
             style="fill:#000000;fill-opacity:1;fill-rule:nonzero;stroke:none"
             d="M 0,0 C 0,-0.209 -0.17,-0.379 -0.379,-0.379 H -10.724 V 10.545 H 0 Z M -12.229,12.051 V -1.885 h 12.07 c 0.919,0 1.665,0.745 1.665,1.665 V 12.051 Z M -9.081,0.744 h 1.823 c 0.577,1.203 1.518,3.486 1.873,6.158 h 1.67 V 3.854 c 0,-1.065 -0.108,-2.106 -0.314,-3.11 h 1.596 c 0.203,1.005 0.309,2.045 0.309,3.11 v 3.048 h 1.078 V 8.351 H -2.124 V 9.606 H -3.715 V 8.351 H -9.611 V 6.902 h 2.59 C -7.47,3.879 -8.743,1.368 -9.081,0.744 m -5.465,1.093 v 1.399 h -6.008 v 1.175 h 5.71 v 1.48 h -5.71 v 1.175 h 5.71 v 1.48 h -5.71 v 1.175 h 6.008 v 1.399 h -1.915 v 1.156 h -1.526 l -0.354,-1.156 h -6.155 l -0.354,1.156 h -1.526 V 11.12 h -1.915 V 9.721 h 6.008 V 8.546 h -5.71 v -1.48 h 5.71 V 5.891 h -5.71 v -1.48 h 5.71 V 3.236 h -6.008 V 1.837 h 5.5 c -1.313,-1.485 -3.616,-2.193 -5.5,-2.201 v -1.537 c 1.781,0.005 3.449,0.436 4.827,1.246 0.829,0.487 1.518,1.091 2.044,1.783 0.526,-0.692 1.214,-1.296 2.044,-1.783 1.378,-0.81 3.047,-1.241 4.83,-1.246 v 1.537 c -1.886,0.008 -4.191,0.716 -5.504,2.201 z" /></g></g></g></g></svg>